<?xml version="1.0" encoding="iso-8859-1"?>
<!-- Generator: Adobe Illustrator 19.0.0, SVG Export Plug-In . SVG Version: 6.00 Build 0)  -->
<svg xmlns="http://www.w3.org/2000/svg" xmlns:xlink="http://www.w3.org/1999/xlink" version="1.1" id="Layer_1" x="0px" y="0px" viewBox="0 0 512 512" style="enable-background:new 0 0 512 512;" xml:space="preserve" width="512px" height="512px">
<g>
	<g>
		<path d="M487.62,429.65V148.182h-51.109V80.449H336.213V34.568h-92.031v20.785H176.96v69.355h-70.151V80.449H24.38V429.65H0    v47.782h512V429.65H487.62z M436.511,163.39h35.901v266.26h-35.901V163.39z M336.213,367.531v-39.759V151.653v-39.759V95.657    h85.09v52.525V429.65h-85.09V367.531z M259.389,55.353v-5.577h61.615v30.673v31.446h-61.615V55.353z M259.389,127.103h61.615    v9.343h-61.615V127.103z M259.389,151.653h61.615v176.119h-61.615V151.653z M259.389,342.98h61.615v9.343h-61.615V342.98z     M259.389,367.531h61.615v62.119h-61.615V367.531z M192.168,124.708V70.561h52.013v41.334v39.759v176.119v39.759v62.119h-52.013    V124.708z M164.99,139.916h11.971V429.65H164.99V139.916z M133.987,139.916h15.795V429.65h-15.795V139.916z M106.808,139.916    h11.971V429.65h-11.971V139.916z M39.588,95.657h52.013v29.051v43.458H39.588V95.657z M39.588,183.374h52.013v159.187H39.588    V183.374z M39.588,357.769h52.013v71.881H39.588V357.769z M496.792,462.224H15.208v-17.366h9.172h67.221h15.208h70.151h15.208    h52.013h15.208h61.615h15.208h85.09h15.208h51.109h9.172V462.224z" fill="#FFFFFF"/>
	</g>
</g>
<g>
	<g>
		<path d="M378.758,162.047c-19.709,0-35.744,16.034-35.744,35.744s16.035,35.744,35.744,35.744    c19.708,0,35.744-16.034,35.744-35.744S398.468,162.047,378.758,162.047z M378.758,218.328c-11.324,0-20.536-9.212-20.536-20.536    c0-11.324,9.212-20.536,20.536-20.536s20.536,9.212,20.536,20.536C399.294,209.116,390.082,218.328,378.758,218.328z" fill="#FFFFFF"/>
	</g>
</g>
<g>
	<g>
		<rect x="350.614" y="288.92" width="56.279" height="15.208" fill="#FFFFFF"/>
	</g>
</g>
<g>
	<g>
		<rect x="350.614" y="314.824" width="56.279" height="15.208" fill="#FFFFFF"/>
	</g>
</g>
<g>
	<g>
		<rect x="350.614" y="340.739" width="56.279" height="15.208" fill="#FFFFFF"/>
	</g>
</g>
<g>
</g>
<g>
</g>
<g>
</g>
<g>
</g>
<g>
</g>
<g>
</g>
<g>
</g>
<g>
</g>
<g>
</g>
<g>
</g>
<g>
</g>
<g>
</g>
<g>
</g>
<g>
</g>
<g>
</g>
</svg>
