<?xml version="1.0" encoding="iso-8859-1"?>
<!-- Generator: Adobe Illustrator 18.0.0, SVG Export Plug-In . SVG Version: 6.00 Build 0)  -->
<!DOCTYPE svg PUBLIC "-//W3C//DTD SVG 1.1//EN" "http://www.w3.org/Graphics/SVG/1.1/DTD/svg11.dtd">
<svg xmlns="http://www.w3.org/2000/svg" xmlns:xlink="http://www.w3.org/1999/xlink" version="1.1" id="Capa_1" x="0px" y="0px" viewBox="0 0 472.118 472.118" style="enable-background:new 0 0 472.118 472.118;" xml:space="preserve" width="512px" height="512px">
<g>
	<path d="M467.118,356.208h-18.351v-39.512h13.78c2.761,0,5-2.239,5-5v-49.513c0-2.761-2.239-5-5-5h-3.972   c6.02-15.263,4.806-32.645-3.657-47.044c-0.744-1.266-2.019-2.143-3.465-2.395c-0.283-0.049-0.57-0.074-0.857-0.074H296.937   c-2.761,0-5,2.239-5,5s2.239,5,5,5h4.667c6.264,12.412,6.262,27.099-0.007,39.512h-4.66c-2.761,0-5,2.239-5,5s2.239,5,5,5h6.951   v39.513h-13.78c-2.761,0-5,2.239-5,5v44.512h-12.551V71.911c0-2.761-2.239-5-5-5h-28.69h-28.69c-2.761,0-5,2.239-5,5v284.297   h-9.346v-201.47c0-2.761-2.239-5-5-5H123.82c-2.761,0-5,2.239-5,5v201.47h-8.711V71.911c0-2.761-2.239-5-5-5h-82.04   c-2.761,0-5,2.239-5,5v284.297H5c-2.761,0-5,2.239-5,5v38.998c0,2.761,2.239,5,5,5h462.118c2.761,0,5-2.239,5-5v-38.998   C472.118,358.447,469.879,356.208,467.118,356.208z M438.767,340.029H295.108v-7.154h143.659V340.029z M431.976,267.183v39.513   H339.46v-39.513H431.976z M457.547,306.696h-15.571v-39.513h15.571V306.696z M312.543,257.183c0.936-2.373,1.701-4.796,2.287-7.252   h135.685c-0.737,2.478-1.696,4.906-2.881,7.252H312.543z M316.239,234.927h136.026c0.095,1.667,0.094,3.337-0.001,5.004H316.238   C316.316,238.264,316.316,236.595,316.239,234.927z M447.641,217.671c1.185,2.347,2.143,4.777,2.879,7.256H314.835   c-0.585-2.458-1.35-4.882-2.286-7.256H447.641z M313.888,267.183h15.572v39.513h-15.572V267.183z M438.767,316.696v6.179H295.108   v-6.179H438.767z M295.108,350.029h143.659v6.179H295.108V350.029z M243.867,147.219h18.69v208.989h-18.69V147.219z    M262.557,118.538h-18.69v-8.681h18.69V118.538z M233.867,118.538h-18.69v-8.681h18.69V118.538z M233.867,128.538v8.681h-18.69   v-8.681H233.867z M243.867,128.538h18.69v8.681h-18.69V128.538z M262.557,99.857h-18.69V76.911h18.69V99.857z M233.867,76.911   v22.945h-18.69V76.911H233.867z M215.177,147.219h18.69v208.989h-18.69V147.219z M185.831,190.601H128.82v-4.394h57.011V190.601z    M185.831,200.601v114.745H128.82V200.601H185.831z M185.831,325.345v4.394H128.82v-4.394H185.831z M185.831,159.738v16.469H128.82   v-16.469H185.831z M128.82,339.739h57.011v16.469H128.82V339.739z M100.109,332.466h-72.04V100.654h72.04V332.466z M100.109,76.911   v13.742h-72.04V76.911H100.109z M28.069,342.466h72.04v13.742h-72.04V342.466z M462.118,395.206H10v-28.998h452.118V395.206z" fill="#FFFFFF"/>
	<path d="M42.979,125.21H85.2c2.761,0,5-2.239,5-5s-2.239-5-5-5H42.979c-2.761,0-5,2.239-5,5S40.217,125.21,42.979,125.21z" fill="#FFFFFF"/>
	<path d="M42.979,141.522H85.2c2.761,0,5-2.239,5-5s-2.239-5-5-5H42.979c-2.761,0-5,2.239-5,5S40.217,141.522,42.979,141.522z" fill="#FFFFFF"/>
	<path d="M85.2,311.922H42.979c-2.761,0-5,2.239-5,5s2.239,5,5,5H85.2c2.761,0,5-2.239,5-5S87.961,311.922,85.2,311.922z" fill="#FFFFFF"/>
	<path d="M148.209,303.275c2.761,0,5-2.239,5-5v-80.604c0-2.761-2.239-5-5-5s-5,2.239-5,5v80.604   C143.209,301.036,145.448,303.275,148.209,303.275z" fill="#FFFFFF"/>
	<path d="M166.441,303.275c2.761,0,5-2.239,5-5v-80.604c0-2.761-2.239-5-5-5s-5,2.239-5,5v80.604   C161.441,301.036,163.68,303.275,166.441,303.275z" fill="#FFFFFF"/>
	<path d="M357.83,300.856h55.775c2.761,0,5-2.239,5-5v-17.833c0-2.761-2.239-5-5-5H357.83c-2.761,0-5,2.239-5,5v17.833   C352.83,298.617,355.069,300.856,357.83,300.856z M362.83,283.023h45.775v7.833H362.83V283.023z" fill="#FFFFFF"/>
</g>
<g>
</g>
<g>
</g>
<g>
</g>
<g>
</g>
<g>
</g>
<g>
</g>
<g>
</g>
<g>
</g>
<g>
</g>
<g>
</g>
<g>
</g>
<g>
</g>
<g>
</g>
<g>
</g>
<g>
</g>
</svg>
